<svg xmlns="http://www.w3.org/2000/svg" viewBox="0 0 63.472 55.808">
  <defs>
    <style>
      .cls-1 {
        fill: none;
        stroke: #4f00a5;
        stroke-linecap: round;
        stroke-miterlimit: 10;
        stroke-width: 3px;
      }
    </style>
  </defs>
  <g id="Group_60768" data-name="Group 60768" transform="translate(1.5 1.578)">
    <path id="Path_296" data-name="Path 296" class="cls-1" d="M24.929,4.4c-3.714,2.147-6.558,9.692.522,14.044.348.232.987.754.987.754,2.379,2.379,1.857,4.7.116,6.616" transform="translate(-10.362 -3.319)"/>
    <path id="Path_297" data-name="Path 297" class="cls-1" d="M8.607,23c-1.915,3.308-1.045,8.763,3.366,10.794a6.27,6.27,0,0,1,2.379,1.451c2.612,3.018,3.308,5.281.987,9.344l-.058.058" transform="translate(-4.718 -11.125)"/>
    <path id="Path_298" data-name="Path 298" class="cls-1" d="M24.8,83.51A7.919,7.919,0,0,1,21.9,72.6" transform="translate(-10.236 -31.94)"/>
    <path id="Path_299" data-name="Path 299" class="cls-1" d="M24.943,3.5a7.907,7.907,0,0,0-7.777.116,8.068,8.068,0,0,0-4,6.674,8,8,0,0,0-6.79,11.781,8,8,0,0,0,0,13.58,7.906,7.906,0,0,0,.116,7.777,8.068,8.068,0,0,0,6.674,4,8,8,0,0,0,11.781,6.79c4.469-2.205,4.469-8.647,4.469-8.647V10.7A8.228,8.228,0,0,0,24.943,3.5Z" transform="translate(-2.6 -2.537)"/>
    <path id="Path_300" data-name="Path 300" class="cls-1" d="M43.109,46.4c0,4.411-2.554,8.009-8.009,8.009" transform="translate(-16.239 -20.945)"/>
    <path id="Path_301" data-name="Path 301" class="cls-1" d="M79.451,4.4c3.714,2.147,6.558,9.692-.522,14.044-.348.232-.987.754-.987.754-2.379,2.379-1.857,4.7-.058,6.616" transform="translate(-33.546 -3.319)"/>
    <path id="Path_302" data-name="Path 302" class="cls-1" d="M94.213,23c1.915,3.366,1.045,8.821-3.366,10.852A6.27,6.27,0,0,0,88.467,35.3c-2.612,3.018-3.308,5.281-.987,9.344l.058.058" transform="translate(-37.629 -11.125)"/>
    <path id="Path_303" data-name="Path 303" class="cls-1" d="M81.7,83.51A7.919,7.919,0,0,0,84.6,72.6" transform="translate(-35.795 -31.94)"/>
    <path id="Path_304" data-name="Path 304" class="cls-1" d="M65.069,3.5a7.907,7.907,0,0,1,7.777.116,8.068,8.068,0,0,1,4,6.674,8,8,0,0,1,6.79,11.781,8,8,0,0,1,0,13.58,7.907,7.907,0,0,1-.116,7.777,8.068,8.068,0,0,1-6.674,4,8,8,0,0,1-11.781,6.79C60.6,52.019,60.6,45.577,60.6,45.577V10.7A8.341,8.341,0,0,1,65.069,3.5Z" transform="translate(-26.94 -2.537)"/>
    <path id="Path_305" data-name="Path 305" class="cls-1" d="M60.6,46.4c0,4.411,2.554,8.009,8.009,8.009" transform="translate(-26.94 -20.945)"/>
  </g>
</svg>
